<svg role="img" aria-label="RPX Insurance Services" xmlns="http://www.w3.org/2000/svg" width="225.43" height="52.271" viewBox="0 0 225.43 52.271"><path d="M0 8.207h15.977c4.506 0 8.044 1.338 10.35 3.585 1.89 1.94 2.967 4.61 2.967 7.726v.104c0 5.896-3.534 9.426-8.554 10.865l9.682 13.565h-7.427L14.19 31.557H6.294v12.495H0V8.207zm15.518 17.778c4.507 0 7.373-2.358 7.373-6v-.103c0-3.844-2.763-5.94-7.426-5.94h-9.17v12.043h9.224zM36.78 8.207h15.73c8.353 0 13.62 4.45 13.62 11.67v.115c0 8.047-6.445 11.536-14.335 11.536h-8.713V44.05H36.78V8.208zm15.217 17.758c4.762 0 7.735-2.232 7.735-5.98v-.1c0-4.21-3.023-5.943-7.735-5.943h-8.915v12.023h8.915zM84.694 34.286l6.62 9.766h7.278L88.51 28.907l-3.816 5.38zm13.898-26.08h-7.278l-6.62 9.777 3.816 5.365 10.082-15.14z" fill="#057DC1"></path><path d="M86.698 26.14L73.963 44.053h-7.255l12.734-17.91L66.708 8.206h7.255"></path><g><path d="M122.115 8.21h2.773v15.777h-2.773V8.21zM128.336 12.087h2.728v1.85c.767-1.128 1.87-2.098 3.72-2.098 2.682 0 4.236 1.803 4.236 4.574v7.573h-2.727v-6.762c0-1.848-.925-2.907-2.547-2.907-1.578 0-2.683 1.104-2.683 2.953v6.717h-2.728v-11.9zM141.34 22.433l1.217-1.85c1.285.97 2.683 1.466 3.9 1.466 1.17 0 1.848-.497 1.848-1.285v-.046c0-.925-1.263-1.24-2.66-1.668-1.758-.496-3.72-1.218-3.72-3.494v-.045c0-2.254 1.872-3.63 4.24-3.63 1.485 0 3.108.52 4.37 1.354l-1.08 1.938c-1.15-.698-2.367-1.127-3.36-1.127-1.06 0-1.667.496-1.667 1.194v.045c0 .856 1.285 1.218 2.682 1.668 1.736.54 3.697 1.33 3.697 3.47v.047c0 2.502-1.938 3.74-4.418 3.74-1.692 0-3.562-.608-5.05-1.78zM153.33 19.66v-7.573h2.728v6.762c0 1.848.923 2.906 2.547 2.906 1.577 0 2.682-1.104 2.682-2.952v-6.717h2.728v11.9h-2.728V22.14c-.766 1.127-1.87 2.096-3.72 2.096-2.68 0-4.237-1.803-4.237-4.576zM167.438 12.087h2.728v2.683c.743-1.78 2.12-2.998 4.215-2.908v2.885h-.157c-2.39 0-4.057 1.556-4.057 4.71v4.53h-2.728v-11.9zM183.466 23.987v-1.465c-.812.97-2.052 1.713-3.855 1.713-2.252 0-4.236-1.284-4.236-3.674v-.044c0-2.638 2.05-3.9 4.824-3.9 1.442 0 2.365.204 3.29.497v-.226c0-1.646-1.036-2.547-2.93-2.547-1.33 0-2.32.293-3.403.744l-.744-2.187c1.31-.586 2.593-.992 4.53-.992 3.518 0 5.23 1.85 5.23 5.026v7.056h-2.704zm.067-4.98c-.7-.272-1.668-.474-2.728-.474-1.714 0-2.728.698-2.728 1.848v.046c0 1.127 1.014 1.76 2.3 1.76 1.802 0 3.155-1.016 3.155-2.503v-.677zM188.964 12.087h2.728v1.85c.766-1.128 1.87-2.098 3.72-2.098 2.68 0 4.236 1.803 4.236 4.574v7.573h-2.728v-6.762c0-1.848-.924-2.907-2.547-2.907-1.578 0-2.682 1.104-2.682 2.953v6.717h-2.727v-11.9zM201.832 18.104v-.044c0-3.38 2.615-6.22 6.176-6.22 2.254 0 3.65.833 4.756 2.05l-1.69 1.826c-.834-.88-1.713-1.487-3.088-1.487-1.983 0-3.427 1.712-3.427 3.785v.045c0 2.118 1.465 3.832 3.56 3.832 1.285 0 2.232-.608 3.09-1.488l1.644 1.623c-1.172 1.308-2.547 2.23-4.868 2.23-3.54 0-6.154-2.772-6.154-6.153zM213.912 18.082v-.045c0-3.403 2.412-6.198 5.815-6.198 3.786 0 5.702 2.975 5.702 6.4 0 .248-.022.495-.046.766h-8.745c.292 1.938 1.667 3.02 3.425 3.02 1.33 0 2.276-.494 3.224-1.42l1.6 1.42c-1.128 1.354-2.683 2.232-4.868 2.232-3.45 0-6.11-2.502-6.11-6.176zm8.814-.88c-.18-1.757-1.218-3.132-3.02-3.132-1.67 0-2.84 1.285-3.09 3.133h6.11zM120.898 41.763l1.668-1.983c1.51 1.307 3.02 2.05 4.98 2.05 1.715 0 2.797-.788 2.797-1.982v-.045c0-1.127-.632-1.735-3.562-2.412-3.356-.81-5.25-1.802-5.25-4.71v-.045c0-2.704 2.253-4.575 5.387-4.575 2.3 0 4.125.698 5.726 1.983l-1.488 2.097c-1.42-1.06-2.84-1.623-4.282-1.623-1.623 0-2.57.834-2.57 1.87v.046c0 1.217.722 1.758 3.742 2.48 3.336.81 5.07 2.006 5.07 4.62v.045c0 2.953-2.32 4.71-5.634 4.71-2.412 0-4.687-.835-6.582-2.525zM134.85 38.156v-.045c0-3.402 2.412-6.197 5.814-6.197 3.787 0 5.703 2.976 5.703 6.4 0 .248-.022.496-.045.767h-8.745c.292 1.938 1.667 3.02 3.425 3.02 1.33 0 2.277-.495 3.225-1.42l1.6 1.42c-1.127 1.354-2.682 2.232-4.868 2.232-3.45 0-6.11-2.502-6.11-6.176zm8.812-.88c-.18-1.757-1.217-3.132-3.02-3.132-1.668 0-2.84 1.284-3.09 3.133h6.11zM149.115 32.16h2.728v2.683c.744-1.78 2.12-2.997 4.216-2.907v2.885h-.16c-2.39 0-4.058 1.557-4.058 4.712v4.53h-2.728v-11.9zM157.297 32.16h2.93l3.2 8.746 3.224-8.745h2.863l-4.868 11.992h-2.457l-4.89-11.99zM171.652 27.743h2.93v2.592h-2.93v-2.592zm.114 4.418h2.727v11.9h-2.727v-11.9zM176.836 38.18v-.046c0-3.38 2.615-6.22 6.176-6.22 2.254 0 3.652.833 4.756 2.05l-1.69 1.826c-.834-.88-1.712-1.488-3.088-1.488-1.983 0-3.426 1.714-3.426 3.787v.044c0 2.118 1.466 3.83 3.562 3.83 1.284 0 2.23-.607 3.088-1.486l1.645 1.623c-1.173 1.31-2.548 2.232-4.87 2.232-3.54 0-6.154-2.772-6.154-6.153zM188.916 38.156v-.045c0-3.402 2.412-6.197 5.815-6.197 3.787 0 5.703 2.976 5.703 6.4 0 .248-.02.496-.045.767h-8.745c.293 1.938 1.668 3.02 3.426 3.02 1.33 0 2.275-.495 3.223-1.42l1.6 1.42c-1.127 1.354-2.682 2.232-4.867 2.232-3.45 0-6.11-2.502-6.11-6.176zm8.813-.88c-.182-1.757-1.22-3.132-3.022-3.132-1.668 0-2.84 1.284-3.088 3.133h6.11zM202.213 42.506l1.217-1.848c1.285.97 2.684 1.465 3.9 1.465 1.172 0 1.848-.496 1.848-1.285v-.045c0-.924-1.262-1.24-2.66-1.668-1.758-.495-3.72-1.217-3.72-3.493v-.045c0-2.254 1.872-3.63 4.238-3.63 1.487 0 3.11.52 4.372 1.354l-1.08 1.94c-1.15-.7-2.368-1.128-3.36-1.128-1.058 0-1.667.495-1.667 1.194v.045c0 .857 1.286 1.218 2.684 1.67 1.735.54 3.696 1.33 3.696 3.47v.045c0 2.502-1.938 3.742-4.418 3.742-1.69 0-3.56-.608-5.05-1.78z"></path></g><path d="M108.88 0h.618v52.27h-.618z"></path><g><path d="M214 32.732h-1.123v-.575h2.87v.575h-1.122v2.96H214v-2.96zM216.404 32.157h.662l1.076 1.672 1.076-1.673h.662v3.536h-.623v-2.536l-1.115 1.667h-.02l-1.107-1.657v2.526h-.61v-3.536z"></path></g></svg>